<svg xmlns="http://www.w3.org/2000/svg" width="21.88" height="21.84" viewBox="0 0 21.88 21.84">
  <defs>
    <style>
      .cls-1 {
        fill: #fff;
        fill-rule: evenodd;
      }
    </style>
  </defs>
  <path id="_10" data-name="10" class="cls-1" d="M1075.93,4808s-4.11-7.5-4.1-7.49c0.03,0.04-6.83-4.08-6.83-4.08s20.38-9.83,21.17-10.22a0.509,0.509,0,0,1,.68.68C1086.68,4787.23,1075.93,4808,1075.93,4808Zm8.24-18.53-10.97,10.38c0.6,1.35,2.73,5.43,2.73,5.43Zm-11.66,9.68a0.038,0.038,0,0,1,.02.02l10.75-10.18-15.55,7.44S1072.5,4799.14,1072.51,4799.15Z" transform="translate(-1065 -4786.16)"/>
</svg>
